<svg version="1.1" xmlns="http://www.w3.org/2000/svg" xmlns:xlink="http://www.w3.org/1999/xlink" width="77.81642" height="79.39367" viewBox="0,0,77.81642,79.39367"><g transform="translate(-211.89805,-151.90351)"><g data-paper-data="{&quot;isPaintingLayer&quot;:true}" fill="none" fill-rule="evenodd" stroke="#00e9ff" stroke-width="2" stroke-linecap="butt" stroke-linejoin="miter" stroke-miterlimit="10" stroke-dasharray="" stroke-dashoffset="0" style="mix-blend-mode: normal"><path d="M274.67938,223.15355c0,-3.87568 3.14187,-7.01754 7.01755,-7.01754c3.87568,0 7.01754,3.14186 7.01754,7.01754c0,3.87568 -3.14186,7.01754 -7.01754,7.01754c-3.87568,0 -7.01755,-3.14186 -7.01755,-7.01754z"/><path d="M212.89806,223.27964c0,-3.87568 3.14187,-7.01755 7.01755,-7.01755c3.87568,0 7.01754,3.14187 7.01754,7.01755c0,3.87568 -3.14186,7.01754 -7.01754,7.01754c-3.87568,0 -7.01755,-3.14186 -7.01755,-7.01754z"/><path d="M243.7807,159.92106c0,-3.87568 3.14187,-7.01754 7.01755,-7.01754c3.87568,0 7.01754,3.14186 7.01754,7.01754c0,3.87568 -3.14186,7.01754 -7.01754,7.01754c-3.87568,0 -7.01755,-3.14186 -7.01755,-7.01754z"/></g></g></svg>